<?xml version="1.0" encoding="utf-8"?>
<!-- Generator: Adobe Illustrator 19.0.0, SVG Export Plug-In . SVG Version: 6.00 Build 0)  -->
<svg version="1.1" xmlns="http://www.w3.org/2000/svg" xmlns:xlink="http://www.w3.org/1999/xlink" x="0px" y="0px"
	 viewBox="0 0 107.8 97.7" style="enable-background:new 0 0 107.8 97.7;" xml:space="preserve">
<style type="text/css">
	.st0{fill:none;stroke:#000000;stroke-width:3;stroke-linecap:round;stroke-linejoin:round;}
</style>
<g id="Dessin2D::visible::lignes">
	<line class="st0" x1="24.3" y1="86.2" x2="19" y2="86.2"/>
	<line class="st0" x1="19" y1="86.2" x2="24.3" y2="86.2"/>
	<line class="st0" x1="41.2" y1="13" x2="4.2" y2="77.6"/>
	<line class="st0" x1="41.2" y1="13" x2="41.2" y2="13"/>
	<line class="st0" x1="4.1" y1="77.6" x2="41.2" y2="13"/>
	<line class="st0" x1="19" y1="86.2" x2="4.1" y2="77.6"/>
	<line class="st0" x1="4.2" y1="77.6" x2="19" y2="86.2"/>
	<line class="st0" x1="24.3" y1="86.2" x2="24.3" y2="86.2"/>
	<line class="st0" x1="53.3" y1="86.2" x2="24.3" y2="86.2"/>
	<line class="st0" x1="24.3" y1="86.2" x2="53.3" y2="86.2"/>
	<line class="st0" x1="53.3" y1="86.2" x2="53.3" y2="86.2"/>
	<line class="st0" x1="82.4" y1="86.2" x2="53.3" y2="86.2"/>
	<line class="st0" x1="53.3" y1="86.2" x2="82.4" y2="86.2"/>
	<line class="st0" x1="82.4" y1="86.2" x2="82.4" y2="86.2"/>
	<line class="st0" x1="87.7" y1="86.2" x2="82.4" y2="86.2"/>
	<line class="st0" x1="102.6" y1="77.6" x2="87.7" y2="86.2"/>
	<line class="st0" x1="86.5" y1="49.8" x2="102.6" y2="77.6"/>
	<line class="st0" x1="102.5" y1="77.6" x2="65.2" y2="13"/>
	<line class="st0" x1="87.7" y1="86.2" x2="102.5" y2="77.6"/>
	<line class="st0" x1="82.4" y1="86.2" x2="87.7" y2="86.2"/>
	<path class="st0" d="M41.2,13"/>
	<line class="st0" x1="41.2" y1="13" x2="41.2" y2="13"/>
	<path class="st0" d="M41.2,13"/>
	<path class="st0" d="M65.2,13"/>
	<line class="st0" x1="65.2" y1="13" x2="41.2" y2="13"/>
</g>
</svg>
